<?xml version="1.0" encoding="UTF-8"?>
<svg data-bbox="377.691 5.004 1445.519 389.156" xmlns="http://www.w3.org/2000/svg" viewBox="0 0 1880 480" height="480" width="1880" data-type="ugc">
    <g>
        <mask fill="#000000" height="401" width="440" y="-.84" x="1221.23" maskUnits="userSpaceOnUse" id="11df2c15-2243-4234-9e71-8ca674870d4d">
            <path fill="#ffffff" d="M1661.23-.84v401h-440v-401h440z"/>
            <path d="M1340.42 5.068c-15.68 1.016-30.8 5.44-46.25 13.568-1.16.604-6.04 3.369-6.85 3.883-.34.219-1.19.746-1.9 1.17-1.28.785-4.4 2.83-5.35 3.499-3.13 2.186-4.18 2.945-5.78 4.153-7.74 5.839-16.53 15.008-23.51 24.525-5.02 6.828-9.04 13.516-12.83 21.347-.73 1.492-2.96 6.688-3.67 8.527-4.59 11.87-7.27 24.395-7.97 37.191-.11 2.045-.11 11.394.01 13.439 1.08 19.83 6.8 40.265 17.09 61.149 5.04 10.224 11.63 21.22 18.95 31.636 3.35 4.758 5.55 7.703 11.64 15.625 1.11 1.453 2.09 2.739 2.18 2.855.15.193.07.347-.81 1.479-3.07 3.948-4.69 8.359-5.05 13.773-.33 4.951.96 10.468 3.45 14.738.82 1.402 6.02 8.745 7.15 10.082 4.89 5.864 12.32 8.552 19.19 6.97 3.16-.72 5.89-2.199 8.55-4.616l1.13-1.016.7.784.71.772-.55.784c-1.88 2.714-3.09 5.813-3.64 9.272-.22 1.364-.24 1.878-.2 4.308.05 2.418.09 2.958.37 4.296.61 3.022 1.66 5.864 3.04 8.204 1.08 1.827 6.22 9.003 7.42 10.353 3.02 3.395 6.9 5.684 11.06 6.546 1.54.321 4.91.334 6.34.025 2.2-.475 4.27-1.337 5.98-2.507.49-.335 1.68-1.325 2.63-2.174l1.72-1.569 1.21 1.222c.66.669 1.2 1.248 1.2 1.286 0 .052-.26.656-.56 1.338-.73 1.607-1.42 3.935-1.69 5.722-.32 2.032-.27 5.864.09 7.755.68 3.536 2.08 6.829 4.04 9.465 1.75 2.366 4.72 5.967 5.64 6.854 3.68 3.498 8.02 5.209 12.74 5.003 4.28-.18 7.96-1.852 11.21-5.106l1.03-1.028.87.72c.49.411.91.759.93.771.02.026-.15.515-.36 1.106-.47 1.209-.92 3.074-1.09 4.411-.18 1.428-.07 4.81.21 6.173.57 2.868 1.57 5.453 2.95 7.678 1.35 2.173 5.8 7.317 7.56 8.757 6.07 4.939 13.8 5.209 19.13.643.32-.27 1.63-1.646 2.91-3.035l2.32-2.546 2.19 1.08c6.46 3.203 11.77 5.029 15.98 5.492 3.33.373 9.12-.785 13.32-2.662 8.07-3.614 13.16-10.07 14.66-18.609.41-2.366.5-3.626.46-6.481-.04-1.428-.02-2.598 0-2.598.03 0 .45.219.94.501 3.81 2.174 8.34 3.768 12.7 4.463 2 .334 6.34.321 8.16 0 1.69-.296 3.96-.952 5.37-1.556 2.4-1.003 6.38-3.485 9.02-5.594 4.63-3.743 7.89-7.832 9.88-12.397 1.4-3.203 1.97-5.916 2.07-9.723l.07-2.507h4.03c4.25 0 5.68-.129 8.2-.721 2.05-.475 4.29-1.453 7.04-3.073 9.53-5.594 15.9-13.915 17.94-23.405.43-2.02.79-5.106.81-6.945v-.45l3.43-.013c3.57-.013 4.73-.129 7.83-.836 5.12-1.157 10.5-3.858 14.76-7.407 2.67-2.225 5.6-5.44 7.73-8.475 1.98-2.842 2.22-3.292 2.59-4.964.57-2.572.74-4.321.73-7.755-.01-2.803-.04-3.253-.32-4.861-.54-3.241-1.57-6.263-2.93-8.616l-.62-1.08.41-.219c.74-.399 5.13-3.189 6.81-4.321 14.58-9.902 27.25-22.376 37.65-37.101 14.66-20.769 24.14-44.959 27.45-70.101.34-2.507.73-6.507.86-8.667.04-.605.09-1.273.11-1.479.28-2.379.28-15.188.01-17.168-.02-.18-.08-.875-.12-1.544-.04-.668-.09-1.401-.12-1.607-.03-.219-.1-.99-.17-1.736-.14-1.531-.13-1.479-.45-3.987-1.88-14.93-6.5-29.54-13.3-42.117-8.9-16.435-21.22-29.9-37.14-40.573-12.43-8.32-25.53-13.928-38.16-16.32-3.26-.617-6.24-1.041-8.67-1.247-.53-.039-1.14-.103-1.35-.142-.22-.038-2.56-.09-5.21-.128-6.59-.09-10.93.257-17.06 1.376-15.02 2.752-29.89 9.26-44.83 19.65-6.39 4.45-12.11 9.054-19.57 15.754-5.35 4.81-5.78 5.195-6.85 5.992-2.54 1.89-6.34 3.743-12.35 5.993l-1.62.605-.64-.695c-2.73-2.983-3.84-4.154-5.62-5.98-14.92-15.239-31.7-27.25-49.08-35.12-9.99-4.527-20.79-7.755-30.8-9.208-2.95-.425-3.53-.49-7.48-.862-1.8-.167-11.88-.244-14.04-.116zm12.51 4.296c.2.025.93.09 1.65.141.71.039 1.46.103 1.64.129.19.025.95.115 1.7.192 3.52.373 8 1.158 12.21 2.135 24.32 5.671 49.24 20.872 70.45 42.94 2.37 2.47 3.42 3.627 3.33 3.704-.03.026-.84.347-1.8.733-9.93 3.858-17.56 8.449-23.89 14.39-1.83 1.724-5.63 6.044-7.14 8.115-1.72 2.353-2.77 4-5.18 8.102-5.2 8.873-9.51 14.905-15.36 21.553-3.81 4.308-6.66 7.151-10.32 10.25-2.96 2.52-6.12 4.848-8.43 6.211-.67.399-1.46 1.029-2.26 1.788-6.45 6.276-10.78 12.474-12.63 18.133-1.26 3.819-1.41 7.548-.44 11.008 1.29 4.694 4.92 9.092 9.94 12.088 1.52.9 2.55 1.145 7.26 1.736 2.22.283 9.05.348 11.32.116 14.26-1.492 27.27-7.883 40.41-19.869 5.94-5.401 10.99-11.034 18.55-20.666 3.74-4.771 5.17-6.43 6.26-7.253 2.91-2.186 6.72-3.369 11.59-3.575 2.01-.077 6.29.026 6.67.18.12.051.79 1.44 1.84 3.884 13.66 31.674 31.97 61.098 53.22 85.481 11.56 13.258 22.89 24.035 34.2 32.536 5.42 4.089 8.17 5.838 13.7 8.783 1.48.797 4.04 2.636 5.05 3.652 2.49 2.495 4.2 5.865 4.97 9.761.66 3.318.63 7.279-.07 10.996-.22 1.221-.28 1.35-1.06 2.572-3.95 6.172-9.34 11.021-15.23 13.721-4.36 1.994-8.35 2.855-13.31 2.868h-2.83l-1.3-.952c-15.23-11.188-31.92-25.064-45.86-38.13-20.96-19.663-37-38.644-46.6-55.131-2.39-4.102-3.97-7.202-5.74-11.214-.62-1.427-1.15-2.623-1.17-2.649-.03-.026-2.77 1.325-2.97 1.479-.14.09 2.51 5.89 4.09 8.925 11.64 22.441 34.33 48.392 66.43 75.964 8.47 7.266 20.38 16.821 27.2 21.811.93.682 1.58 1.247 1.63 1.402.1.386.11 4.218.01 5.311-.52 5.414-2.39 10.404-5.49 14.596-3.09 4.18-7.34 7.806-12.29 10.481-3.98 2.148-6.15 2.636-11.97 2.701-1.83.013-3.85-.013-4.47-.052l-1.13-.09-1.3-.951c-24.46-17.773-50.31-42.297-69.6-66.037-11.06-13.632-20.97-28.022-28.29-41.152-.67-1.209-1.28-2.264-1.36-2.354-.15-.18-.17-.167-2.46 1.479l-.43.296.82 1.453c16.26 29.103 39.55 57.716 68.34 83.912 8.82 8.038 17.48 15.227 26.41 21.978 2.28 1.711 4.31 3.254 4.54 3.434.4.296.42.36.57 1.453.22 1.698.2 4.604-.06 6.147-1.01 6.147-4.63 11.613-10.84 16.345-6.01 4.604-10.48 6.302-16.23 6.148-5.48-.142-11.73-2.315-17.33-6.006-.71-.476-2.4-1.762-4.46-3.408l-.72-.579.07.489c.07.411.06.476-.06.36-.08-.077-1.09-.965-2.25-1.98-11.19-9.851-23.99-22.043-34.25-32.639-21.77-22.506-38.29-43.313-48.55-61.124-.72-1.222-1.43-2.495-1.6-2.842-.17-.335-.37-.605-.44-.605-.08 0-.73.425-1.46.939l-1.32.939.64 1.157c3.77 6.816 9.18 15.124 15.04 23.084 6.02 8.166 10.78 13.992 19.51 23.92 8.26 9.375 14 15.483 23.11 24.563 9.78 9.76 22.61 21.669 31.27 29.05.79.669 1.46 1.312 1.5 1.415.31 1.042.54 6.584.34 8.552-.67 6.687-3.71 11.87-9.04 15.484-4.61 3.112-11.97 5.002-16.42 4.192-2.56-.45-5.63-1.428-8.98-2.842-1.72-.733-2.55-1.106-4.83-2.225l-.56-.283 2.49-2.855c3.13-3.575 3.92-4.887 4.78-7.793.56-1.865.74-3.279.74-5.543.01-2.34-.21-3.832-.84-6.044-.99-3.434-2.19-5.504-5.47-9.401-3.29-3.922-4.64-5.169-7.05-6.533-2.57-1.453-4.82-2.07-7.61-2.07-3.25-.013-5.73.772-8.2 2.598-1.12.836-2.24 2.019-8.44 8.925l-4.73 5.285-.53-.45c-.31-.232-.55-.476-.55-.527 0-.052 2.2-2.341 4.9-5.093 4.91-5.041 5.88-6.173 6.99-8.102 1.16-2.019 2.12-4.758 2.56-7.33.32-1.8.3-5.838-.04-7.703-.63-3.395-1.88-6.52-3.68-9.118-1.03-1.505-5.08-6.481-5.91-7.292-2.45-2.366-5.37-3.999-8.52-4.771-1.73-.411-4.78-.476-6.57-.141-2.74.54-5.53 1.865-7.57 3.601-.88.746-10.15 10.146-13.94 14.146l-1.28 1.337-.85-.861c-.46-.476-.85-.914-.85-.978 0-.051 3.84-3.614 8.53-7.909 4.67-4.308 8.89-8.23 9.35-8.719 4.44-4.835 6.27-12.281 4.86-19.74-.5-2.675-1.63-5.671-3.04-8.102-.96-1.672-6.07-8.822-7.24-10.172-3.43-3.91-8.08-6.443-12.68-6.906-1.51-.155-4.31.013-5.6.347-2.1.527-4.17 1.505-5.88 2.804-.45.334-2.95 2.572-5.57 4.976-2.61 2.405-7.55 6.932-10.97 10.07l-6.22 5.71-.63-.72c-.34-.386-.6-.734-.58-.759.1-.09 6.66-6.109 13.69-12.552 3.89-3.575 7.41-6.88 7.84-7.356 2.72-3.099 4.57-7.021 5.42-11.509.31-1.608.44-5.813.24-7.575-.42-3.614-1.68-7.42-3.44-10.417-1.12-1.89-6.15-8.899-7.44-10.352-4.87-5.517-11.62-7.986-18.29-6.687-2.55.501-5.33 1.762-7.42 3.356-.58.45-4.41 3.884-8.49 7.626-4.07 3.755-8.61 7.909-10.08 9.259-1.46 1.338-3.3 3.035-4.08 3.756l-1.44 1.324-3.32-4.321c-4.26-5.542-6.4-8.385-8.53-11.355-19.21-26.698-30.95-52.328-35.49-77.482-.45-2.482-1.16-7.343-1.32-9.067-.04-.463-.1-.926-.11-1.041a24.2 24.2 0 0 1-.11-1.222c-.05-.553-.09-1.157-.12-1.337-.02-.18-.08-.965-.11-1.737-.05-.784-.1-1.53-.14-1.671-.02-.142-.08-2.341-.11-4.887-.1-7.793.46-14.751 1.79-22.184 1.62-9.015 4.1-17.155 7.86-25.784 2.32-5.35 4.21-9.028 7.13-13.966 4.19-7.06 8.45-12.873 14.26-19.483 6.62-7.51 11.54-12.012 18.56-17.002 18.02-12.821 36.2-20.318 54.82-22.646 3.19-.399 3.93-.463 6.57-.604.87-.052 1.61-.116 1.64-.142.07-.077 9.91.064 10.36.142z"/>
        </mask>
        <path fill="#E5E5E5" d="M1340.42 5.068c-15.68 1.016-30.8 5.44-46.25 13.568-1.16.604-6.04 3.369-6.85 3.883-.34.219-1.19.746-1.9 1.17-1.28.785-4.4 2.83-5.35 3.499-3.13 2.186-4.18 2.945-5.78 4.153-7.74 5.839-16.53 15.008-23.51 24.525-5.02 6.828-9.04 13.516-12.83 21.347-.73 1.492-2.96 6.688-3.67 8.527-4.59 11.87-7.27 24.395-7.97 37.191-.11 2.045-.11 11.394.01 13.439 1.08 19.83 6.8 40.265 17.09 61.149 5.04 10.224 11.63 21.22 18.95 31.636 3.35 4.758 5.55 7.703 11.64 15.625 1.11 1.453 2.09 2.739 2.18 2.855.15.193.07.347-.81 1.479-3.07 3.948-4.69 8.359-5.05 13.773-.33 4.951.96 10.468 3.45 14.738.82 1.402 6.02 8.745 7.15 10.082 4.89 5.864 12.32 8.552 19.19 6.97 3.16-.72 5.89-2.199 8.55-4.616l1.13-1.016.7.784.71.772-.55.784c-1.88 2.714-3.09 5.813-3.64 9.272-.22 1.364-.24 1.878-.2 4.308.05 2.418.09 2.958.37 4.296.61 3.022 1.66 5.864 3.04 8.204 1.08 1.827 6.22 9.003 7.42 10.353 3.02 3.395 6.9 5.684 11.06 6.546 1.54.321 4.91.334 6.34.025 2.2-.475 4.27-1.337 5.98-2.507.49-.335 1.68-1.325 2.63-2.174l1.72-1.569 1.21 1.222c.66.669 1.2 1.248 1.2 1.286 0 .052-.26.656-.56 1.338-.73 1.607-1.42 3.935-1.69 5.722-.32 2.032-.27 5.864.09 7.755.68 3.536 2.08 6.829 4.04 9.465 1.75 2.366 4.72 5.967 5.64 6.854 3.68 3.498 8.02 5.209 12.74 5.003 4.28-.18 7.96-1.852 11.21-5.106l1.03-1.028.87.72c.49.411.91.759.93.771.02.026-.15.515-.36 1.106-.47 1.209-.92 3.074-1.09 4.411-.18 1.428-.07 4.81.21 6.173.57 2.868 1.57 5.453 2.95 7.678 1.35 2.173 5.8 7.317 7.56 8.757 6.07 4.939 13.8 5.209 19.13.643.32-.27 1.63-1.646 2.91-3.035l2.32-2.546 2.19 1.08c6.46 3.203 11.77 5.029 15.98 5.492 3.33.373 9.12-.785 13.32-2.662 8.07-3.614 13.16-10.07 14.66-18.609.41-2.366.5-3.626.46-6.481-.04-1.428-.02-2.598 0-2.598.03 0 .45.219.94.501 3.81 2.174 8.34 3.768 12.7 4.463 2 .334 6.34.321 8.16 0 1.69-.296 3.96-.952 5.37-1.556 2.4-1.003 6.38-3.485 9.02-5.594 4.63-3.743 7.89-7.832 9.88-12.397 1.4-3.203 1.97-5.916 2.07-9.723l.07-2.507h4.03c4.25 0 5.68-.129 8.2-.721 2.05-.475 4.29-1.453 7.04-3.073 9.53-5.594 15.9-13.915 17.94-23.405.43-2.02.79-5.106.81-6.945v-.45l3.43-.013c3.57-.013 4.73-.129 7.83-.836 5.12-1.157 10.5-3.858 14.76-7.407 2.67-2.225 5.6-5.44 7.73-8.475 1.98-2.842 2.22-3.292 2.59-4.964.57-2.572.74-4.321.73-7.755-.01-2.803-.04-3.253-.32-4.861-.54-3.241-1.57-6.263-2.93-8.616l-.62-1.08.41-.219c.74-.399 5.13-3.189 6.81-4.321 14.58-9.902 27.25-22.376 37.65-37.101 14.66-20.769 24.14-44.959 27.45-70.101.34-2.507.73-6.507.86-8.667.04-.605.09-1.273.11-1.479.28-2.379.28-15.188.01-17.168-.02-.18-.08-.875-.12-1.544-.04-.668-.09-1.401-.12-1.607-.03-.219-.1-.99-.17-1.736-.14-1.531-.13-1.479-.45-3.987-1.88-14.93-6.5-29.54-13.3-42.117-8.9-16.435-21.22-29.9-37.14-40.573-12.43-8.32-25.53-13.928-38.16-16.32-3.26-.617-6.24-1.041-8.67-1.247-.53-.039-1.14-.103-1.35-.142-.22-.038-2.56-.09-5.21-.128-6.59-.09-10.93.257-17.06 1.376-15.02 2.752-29.89 9.26-44.83 19.65-6.39 4.45-12.11 9.054-19.57 15.754-5.35 4.81-5.78 5.195-6.85 5.992-2.54 1.89-6.34 3.743-12.35 5.993l-1.62.605-.64-.695c-2.73-2.983-3.84-4.154-5.62-5.98-14.92-15.239-31.7-27.25-49.08-35.12-9.99-4.527-20.79-7.755-30.8-9.208-2.95-.425-3.53-.49-7.48-.862-1.8-.167-11.88-.244-14.04-.116zm12.51 4.296c.2.025.93.09 1.65.141.71.039 1.46.103 1.64.129.19.025.95.115 1.7.192 3.52.373 8 1.158 12.21 2.135 24.32 5.671 49.24 20.872 70.45 42.94 2.37 2.47 3.42 3.627 3.33 3.704-.03.026-.84.347-1.8.733-9.93 3.858-17.56 8.449-23.89 14.39-1.83 1.724-5.63 6.044-7.14 8.115-1.72 2.353-2.77 4-5.18 8.102-5.2 8.873-9.51 14.905-15.36 21.553-3.81 4.308-6.66 7.151-10.32 10.25-2.96 2.52-6.12 4.848-8.43 6.211-.67.399-1.46 1.029-2.26 1.788-6.45 6.276-10.78 12.474-12.63 18.133-1.26 3.819-1.41 7.548-.44 11.008 1.29 4.694 4.92 9.092 9.94 12.088 1.52.9 2.55 1.145 7.26 1.736 2.22.283 9.05.348 11.32.116 14.26-1.492 27.27-7.883 40.41-19.869 5.94-5.401 10.99-11.034 18.55-20.666 3.74-4.771 5.17-6.43 6.26-7.253 2.91-2.186 6.72-3.369 11.59-3.575 2.01-.077 6.29.026 6.67.18.12.051.79 1.44 1.84 3.884 13.66 31.674 31.97 61.098 53.22 85.481 11.56 13.258 22.89 24.035 34.2 32.536 5.42 4.089 8.17 5.838 13.7 8.783 1.48.797 4.04 2.636 5.05 3.652 2.49 2.495 4.2 5.865 4.97 9.761.66 3.318.63 7.279-.07 10.996-.22 1.221-.28 1.35-1.06 2.572-3.95 6.172-9.34 11.021-15.23 13.721-4.36 1.994-8.35 2.855-13.31 2.868h-2.83l-1.3-.952c-15.23-11.188-31.92-25.064-45.86-38.13-20.96-19.663-37-38.644-46.6-55.131-2.39-4.102-3.97-7.202-5.74-11.214-.62-1.427-1.15-2.623-1.17-2.649-.03-.026-2.77 1.325-2.97 1.479-.14.09 2.51 5.89 4.09 8.925 11.64 22.441 34.33 48.392 66.43 75.964 8.47 7.266 20.38 16.821 27.2 21.811.93.682 1.58 1.247 1.63 1.402.1.386.11 4.218.01 5.311-.52 5.414-2.39 10.404-5.49 14.596-3.09 4.18-7.34 7.806-12.29 10.481-3.98 2.148-6.15 2.636-11.97 2.701-1.83.013-3.85-.013-4.47-.052l-1.13-.09-1.3-.951c-24.46-17.773-50.31-42.297-69.6-66.037-11.06-13.632-20.97-28.022-28.29-41.152-.67-1.209-1.28-2.264-1.36-2.354-.15-.18-.17-.167-2.46 1.479l-.43.296.82 1.453c16.26 29.103 39.55 57.716 68.34 83.912 8.82 8.038 17.48 15.227 26.41 21.978 2.28 1.711 4.31 3.254 4.54 3.434.4.296.42.36.57 1.453.22 1.698.2 4.604-.06 6.147-1.01 6.147-4.63 11.613-10.84 16.345-6.01 4.604-10.48 6.302-16.23 6.148-5.48-.142-11.73-2.315-17.33-6.006-.71-.476-2.4-1.762-4.46-3.408l-.72-.579.07.489c.07.411.06.476-.06.36-.08-.077-1.09-.965-2.25-1.98-11.19-9.851-23.99-22.043-34.25-32.639-21.77-22.506-38.29-43.313-48.55-61.124-.72-1.222-1.43-2.495-1.6-2.842-.17-.335-.37-.605-.44-.605-.08 0-.73.425-1.46.939l-1.32.939.64 1.157c3.77 6.816 9.18 15.124 15.04 23.084 6.02 8.166 10.78 13.992 19.51 23.92 8.26 9.375 14 15.483 23.11 24.563 9.78 9.76 22.61 21.669 31.27 29.05.79.669 1.46 1.312 1.5 1.415.31 1.042.54 6.584.34 8.552-.67 6.687-3.71 11.87-9.04 15.484-4.61 3.112-11.97 5.002-16.42 4.192-2.56-.45-5.63-1.428-8.98-2.842-1.72-.733-2.55-1.106-4.83-2.225l-.56-.283 2.49-2.855c3.13-3.575 3.92-4.887 4.78-7.793.56-1.865.74-3.279.74-5.543.01-2.34-.21-3.832-.84-6.044-.99-3.434-2.19-5.504-5.47-9.401-3.29-3.922-4.64-5.169-7.05-6.533-2.57-1.453-4.82-2.07-7.61-2.07-3.25-.013-5.73.772-8.2 2.598-1.12.836-2.24 2.019-8.44 8.925l-4.73 5.285-.53-.45c-.31-.232-.55-.476-.55-.527 0-.052 2.2-2.341 4.9-5.093 4.91-5.041 5.88-6.173 6.99-8.102 1.16-2.019 2.12-4.758 2.56-7.33.32-1.8.3-5.838-.04-7.703-.63-3.395-1.88-6.52-3.68-9.118-1.03-1.505-5.08-6.481-5.91-7.292-2.45-2.366-5.37-3.999-8.52-4.771-1.73-.411-4.78-.476-6.57-.141-2.74.54-5.53 1.865-7.57 3.601-.88.746-10.15 10.146-13.94 14.146l-1.28 1.337-.85-.861c-.46-.476-.85-.914-.85-.978 0-.051 3.84-3.614 8.53-7.909 4.67-4.308 8.89-8.23 9.35-8.719 4.44-4.835 6.27-12.281 4.86-19.74-.5-2.675-1.63-5.671-3.04-8.102-.96-1.672-6.07-8.822-7.24-10.172-3.43-3.91-8.08-6.443-12.68-6.906-1.51-.155-4.31.013-5.6.347-2.1.527-4.17 1.505-5.88 2.804-.45.334-2.95 2.572-5.57 4.976-2.61 2.405-7.55 6.932-10.97 10.07l-6.22 5.71-.63-.72c-.34-.386-.6-.734-.58-.759.1-.09 6.66-6.109 13.69-12.552 3.89-3.575 7.41-6.88 7.84-7.356 2.72-3.099 4.57-7.021 5.42-11.509.31-1.608.44-5.813.24-7.575-.42-3.614-1.68-7.42-3.44-10.417-1.12-1.89-6.15-8.899-7.44-10.352-4.87-5.517-11.62-7.986-18.29-6.687-2.55.501-5.33 1.762-7.42 3.356-.58.45-4.41 3.884-8.49 7.626-4.07 3.755-8.61 7.909-10.08 9.259-1.46 1.338-3.3 3.035-4.08 3.756l-1.44 1.324-3.32-4.321c-4.26-5.542-6.4-8.385-8.53-11.355-19.21-26.698-30.95-52.328-35.49-77.482-.45-2.482-1.16-7.343-1.32-9.067-.04-.463-.1-.926-.11-1.041a24.2 24.2 0 0 1-.11-1.222c-.05-.553-.09-1.157-.12-1.337-.02-.18-.08-.965-.11-1.737-.05-.784-.1-1.53-.14-1.671-.02-.142-.08-2.341-.11-4.887-.1-7.793.46-14.751 1.79-22.184 1.62-9.015 4.1-17.155 7.86-25.784 2.32-5.35 4.21-9.028 7.13-13.966 4.19-7.06 8.45-12.873 14.26-19.483 6.62-7.51 11.54-12.012 18.56-17.002 18.02-12.821 36.2-20.318 54.82-22.646 3.19-.399 3.93-.463 6.57-.604.87-.052 1.61-.116 1.64-.142.07-.077 9.91.064 10.36.142z"/>
        <path mask="url(#11df2c15-2243-4234-9e71-8ca674870d4d)" stroke-width="10" stroke="url(#b2264053-60cb-4bd1-9020-b3a19b8ef710)" d="M1340.42 5.068c-15.68 1.016-30.8 5.44-46.25 13.568-1.16.604-6.04 3.369-6.85 3.883-.34.219-1.19.746-1.9 1.17-1.28.785-4.4 2.83-5.35 3.499-3.13 2.186-4.18 2.945-5.78 4.153-7.74 5.839-16.53 15.008-23.51 24.525-5.02 6.828-9.04 13.516-12.83 21.347-.73 1.492-2.96 6.688-3.67 8.527-4.59 11.87-7.27 24.395-7.97 37.191-.11 2.045-.11 11.394.01 13.439 1.08 19.83 6.8 40.265 17.09 61.149 5.04 10.224 11.63 21.22 18.95 31.636 3.35 4.758 5.55 7.703 11.64 15.625 1.11 1.453 2.09 2.739 2.18 2.855.15.193.07.347-.81 1.479-3.07 3.948-4.69 8.359-5.05 13.773-.33 4.951.96 10.468 3.45 14.738.82 1.402 6.02 8.745 7.15 10.082 4.89 5.864 12.32 8.552 19.19 6.97 3.16-.72 5.89-2.199 8.55-4.616l1.13-1.016.7.784.71.772-.55.784c-1.88 2.714-3.09 5.813-3.64 9.272-.22 1.364-.24 1.878-.2 4.308.05 2.418.09 2.958.37 4.296.61 3.022 1.66 5.864 3.04 8.204 1.08 1.827 6.22 9.003 7.42 10.353 3.02 3.395 6.9 5.684 11.06 6.546 1.54.321 4.91.334 6.34.025 2.2-.475 4.27-1.337 5.98-2.507.49-.335 1.68-1.325 2.63-2.174l1.72-1.569 1.21 1.222c.66.669 1.2 1.248 1.2 1.286 0 .052-.26.656-.56 1.338-.73 1.607-1.42 3.935-1.69 5.722-.32 2.032-.27 5.864.09 7.755.68 3.536 2.08 6.829 4.04 9.465 1.75 2.366 4.72 5.967 5.64 6.854 3.68 3.498 8.02 5.209 12.74 5.003 4.28-.18 7.96-1.852 11.21-5.106l1.03-1.028.87.72c.49.411.91.759.93.771.02.026-.15.515-.36 1.106-.47 1.209-.92 3.074-1.09 4.411-.18 1.428-.07 4.81.21 6.173.57 2.868 1.57 5.453 2.95 7.678 1.35 2.173 5.8 7.317 7.56 8.757 6.07 4.939 13.8 5.209 19.13.643.32-.27 1.63-1.646 2.91-3.035l2.32-2.546 2.19 1.08c6.46 3.203 11.77 5.029 15.98 5.492 3.33.373 9.12-.785 13.32-2.662 8.07-3.614 13.16-10.07 14.66-18.609.41-2.366.5-3.626.46-6.481-.04-1.428-.02-2.598 0-2.598.03 0 .45.219.94.501 3.81 2.174 8.34 3.768 12.7 4.463 2 .334 6.34.321 8.16 0 1.69-.296 3.96-.952 5.37-1.556 2.4-1.003 6.38-3.485 9.02-5.594 4.63-3.743 7.89-7.832 9.88-12.397 1.4-3.203 1.97-5.916 2.07-9.723l.07-2.507h4.03c4.25 0 5.68-.129 8.2-.721 2.05-.475 4.29-1.453 7.04-3.073 9.53-5.594 15.9-13.915 17.94-23.405.43-2.02.79-5.106.81-6.945v-.45l3.43-.013c3.57-.013 4.73-.129 7.83-.836 5.12-1.157 10.5-3.858 14.76-7.407 2.67-2.225 5.6-5.44 7.73-8.475 1.98-2.842 2.22-3.292 2.59-4.964.57-2.572.74-4.321.73-7.755-.01-2.803-.04-3.253-.32-4.861-.54-3.241-1.57-6.263-2.93-8.616l-.62-1.08.41-.219c.74-.399 5.13-3.189 6.81-4.321 14.58-9.902 27.25-22.376 37.65-37.101 14.66-20.769 24.14-44.959 27.45-70.101.34-2.507.73-6.507.86-8.667.04-.605.09-1.273.11-1.479.28-2.379.28-15.188.01-17.168-.02-.18-.08-.875-.12-1.544-.04-.668-.09-1.401-.12-1.607-.03-.219-.1-.99-.17-1.736-.14-1.531-.13-1.479-.45-3.987-1.88-14.93-6.5-29.54-13.3-42.117-8.9-16.435-21.22-29.9-37.14-40.573-12.43-8.32-25.53-13.928-38.16-16.32-3.26-.617-6.24-1.041-8.67-1.247-.53-.039-1.14-.103-1.35-.142-.22-.038-2.56-.09-5.21-.128-6.59-.09-10.93.257-17.06 1.376-15.02 2.752-29.89 9.26-44.83 19.65-6.39 4.45-12.11 9.054-19.57 15.754-5.35 4.81-5.78 5.195-6.85 5.992-2.54 1.89-6.34 3.743-12.35 5.993l-1.62.605-.64-.695c-2.73-2.983-3.84-4.154-5.62-5.98-14.92-15.239-31.7-27.25-49.08-35.12-9.99-4.527-20.79-7.755-30.8-9.208-2.95-.425-3.53-.49-7.48-.862-1.8-.167-11.88-.244-14.04-.116zm12.51 4.296c.2.025.93.09 1.65.141.71.039 1.46.103 1.64.129.19.025.95.115 1.7.192 3.52.373 8 1.158 12.21 2.135 24.32 5.671 49.24 20.872 70.45 42.94 2.37 2.47 3.42 3.627 3.33 3.704-.03.026-.84.347-1.8.733-9.93 3.858-17.56 8.449-23.89 14.39-1.83 1.724-5.63 6.044-7.14 8.115-1.72 2.353-2.77 4-5.18 8.102-5.2 8.873-9.51 14.905-15.36 21.553-3.81 4.308-6.66 7.151-10.32 10.25-2.96 2.52-6.12 4.848-8.43 6.211-.67.399-1.46 1.029-2.26 1.788-6.45 6.276-10.78 12.474-12.63 18.133-1.26 3.819-1.41 7.548-.44 11.008 1.29 4.694 4.92 9.092 9.94 12.088 1.52.9 2.55 1.145 7.26 1.736 2.22.283 9.05.348 11.32.116 14.26-1.492 27.27-7.883 40.41-19.869 5.94-5.401 10.99-11.034 18.55-20.666 3.74-4.771 5.17-6.43 6.26-7.253 2.91-2.186 6.72-3.369 11.59-3.575 2.01-.077 6.29.026 6.67.18.12.051.79 1.44 1.84 3.884 13.66 31.674 31.97 61.098 53.22 85.481 11.56 13.258 22.89 24.035 34.2 32.536 5.42 4.089 8.17 5.838 13.7 8.783 1.48.797 4.04 2.636 5.05 3.652 2.49 2.495 4.2 5.865 4.97 9.761.66 3.318.63 7.279-.07 10.996-.22 1.221-.28 1.35-1.06 2.572-3.95 6.172-9.34 11.021-15.23 13.721-4.36 1.994-8.35 2.855-13.31 2.868h-2.83l-1.3-.952c-15.23-11.188-31.92-25.064-45.86-38.13-20.96-19.663-37-38.644-46.6-55.131-2.39-4.102-3.97-7.202-5.74-11.214-.62-1.427-1.15-2.623-1.17-2.649-.03-.026-2.77 1.325-2.97 1.479-.14.09 2.51 5.89 4.09 8.925 11.64 22.441 34.33 48.392 66.43 75.964 8.47 7.266 20.38 16.821 27.2 21.811.93.682 1.58 1.247 1.63 1.402.1.386.11 4.218.01 5.311-.52 5.414-2.39 10.404-5.49 14.596-3.09 4.18-7.34 7.806-12.29 10.481-3.98 2.148-6.15 2.636-11.97 2.701-1.83.013-3.85-.013-4.47-.052l-1.13-.09-1.3-.951c-24.46-17.773-50.31-42.297-69.6-66.037-11.06-13.632-20.97-28.022-28.29-41.152-.67-1.209-1.28-2.264-1.36-2.354-.15-.18-.17-.167-2.46 1.479l-.43.296.82 1.453c16.26 29.103 39.55 57.716 68.34 83.912 8.82 8.038 17.48 15.227 26.41 21.978 2.28 1.711 4.31 3.254 4.54 3.434.4.296.42.36.57 1.453.22 1.698.2 4.604-.06 6.147-1.01 6.147-4.63 11.613-10.84 16.345-6.01 4.604-10.48 6.302-16.23 6.148-5.48-.142-11.73-2.315-17.33-6.006-.71-.476-2.4-1.762-4.46-3.408l-.72-.579.07.489c.07.411.06.476-.06.36-.08-.077-1.09-.965-2.25-1.98-11.19-9.851-23.99-22.043-34.25-32.639-21.77-22.506-38.29-43.313-48.55-61.124-.72-1.222-1.43-2.495-1.6-2.842-.17-.335-.37-.605-.44-.605-.08 0-.73.425-1.46.939l-1.32.939.64 1.157c3.77 6.816 9.18 15.124 15.04 23.084 6.02 8.166 10.78 13.992 19.51 23.92 8.26 9.375 14 15.483 23.11 24.563 9.78 9.76 22.61 21.669 31.27 29.05.79.669 1.46 1.312 1.5 1.415.31 1.042.54 6.584.34 8.552-.67 6.687-3.71 11.87-9.04 15.484-4.61 3.112-11.97 5.002-16.42 4.192-2.56-.45-5.63-1.428-8.98-2.842-1.72-.733-2.55-1.106-4.83-2.225l-.56-.283 2.49-2.855c3.13-3.575 3.92-4.887 4.78-7.793.56-1.865.74-3.279.74-5.543.01-2.34-.21-3.832-.84-6.044-.99-3.434-2.19-5.504-5.47-9.401-3.29-3.922-4.64-5.169-7.05-6.533-2.57-1.453-4.82-2.07-7.61-2.07-3.25-.013-5.73.772-8.2 2.598-1.12.836-2.24 2.019-8.44 8.925l-4.73 5.285-.53-.45c-.31-.232-.55-.476-.55-.527 0-.052 2.2-2.341 4.9-5.093 4.91-5.041 5.88-6.173 6.99-8.102 1.16-2.019 2.12-4.758 2.56-7.33.32-1.8.3-5.838-.04-7.703-.63-3.395-1.88-6.52-3.68-9.118-1.03-1.505-5.08-6.481-5.91-7.292-2.45-2.366-5.37-3.999-8.52-4.771-1.73-.411-4.78-.476-6.57-.141-2.74.54-5.53 1.865-7.57 3.601-.88.746-10.15 10.146-13.94 14.146l-1.28 1.337-.85-.861c-.46-.476-.85-.914-.85-.978 0-.051 3.84-3.614 8.53-7.909 4.67-4.308 8.89-8.23 9.35-8.719 4.44-4.835 6.27-12.281 4.86-19.74-.5-2.675-1.63-5.671-3.04-8.102-.96-1.672-6.07-8.822-7.24-10.172-3.43-3.91-8.08-6.443-12.68-6.906-1.51-.155-4.31.013-5.6.347-2.1.527-4.17 1.505-5.88 2.804-.45.334-2.95 2.572-5.57 4.976-2.61 2.405-7.55 6.932-10.97 10.07l-6.22 5.71-.63-.72c-.34-.386-.6-.734-.58-.759.1-.09 6.66-6.109 13.69-12.552 3.89-3.575 7.41-6.88 7.84-7.356 2.72-3.099 4.57-7.021 5.42-11.509.31-1.608.44-5.813.24-7.575-.42-3.614-1.68-7.42-3.44-10.417-1.12-1.89-6.15-8.899-7.44-10.352-4.87-5.517-11.62-7.986-18.29-6.687-2.55.501-5.33 1.762-7.42 3.356-.58.45-4.41 3.884-8.49 7.626-4.07 3.755-8.61 7.909-10.08 9.259-1.46 1.338-3.3 3.035-4.08 3.756l-1.44 1.324-3.32-4.321c-4.26-5.542-6.4-8.385-8.53-11.355-19.21-26.698-30.95-52.328-35.49-77.482-.45-2.482-1.16-7.343-1.32-9.067-.04-.463-.1-.926-.11-1.041a24.2 24.2 0 0 1-.11-1.222c-.05-.553-.09-1.157-.12-1.337-.02-.18-.08-.965-.11-1.737-.05-.784-.1-1.53-.14-1.671-.02-.142-.08-2.341-.11-4.887-.1-7.793.46-14.751 1.79-22.184 1.62-9.015 4.1-17.155 7.86-25.784 2.32-5.35 4.21-9.028 7.13-13.966 4.19-7.06 8.45-12.873 14.26-19.483 6.62-7.51 11.54-12.012 18.56-17.002 18.02-12.821 36.2-20.318 54.82-22.646 3.19-.399 3.93-.463 6.57-.604.87-.052 1.61-.116 1.64-.142.07-.077 9.91.064 10.36.142z" fill="none"/>
        <path fill="#ffffff" d="M405.915 203.992V295h-28.224V104.344h62.208c19.392 0 35.232 4.32 47.52 12.96 12.48 8.64 18.72 20.064 18.72 34.272 0 14.016-4.992 25.152-14.976 33.408-9.792 8.064-23.136 13.632-40.032 16.704L528.315 295l-33.408 4.032-66.816-95.04h-22.176zm0-8.64h18.432c34.56 0 51.84-13.632 51.84-40.896 0-4.608-1.152-9.792-3.456-15.552-4.416-12.096-13.824-20.064-28.224-23.904a154.11 154.11 0 0 0-38.592 4.896v75.456zM561.347 295V104.344h115.488l-2.88 19.296-53.568-8.928c-9.408 0-19.776 1.632-31.104 4.896v69.984h63.936v10.944h-63.936v84.096l89.28-8.928-2.88 19.296H561.347zm182.455-157.536c0 8.448 3.264 16.32 9.792 23.616 6.72 7.104 14.784 13.44 24.192 19.008a849.757 849.757 0 0 1 28.512 16.704c9.408 5.568 17.376 12.48 23.904 20.736 6.72 8.256 10.08 17.376 10.08 27.36 0 15.744-5.856 28.608-17.568 38.592-11.52 9.984-27.168 14.976-46.944 14.976-19.776 0-39.36-3.744-58.752-11.232v-13.536c19.584 9.792 36.192 14.688 49.824 14.688 13.824 0 24.576-3.36 32.256-10.08 7.68-6.72 11.52-16.032 11.52-27.936 0-8.064-3.168-15.36-9.504-21.888-6.336-6.72-14.016-12.48-23.04-17.28a1925.08 1925.08 0 0 1-27.072-15.264c-9.024-5.184-16.704-11.712-23.04-19.584-6.336-8.064-9.504-17.76-9.504-29.088s4.992-21.888 14.976-31.68c10.176-9.792 25.248-14.688 45.216-14.688 13.056 0 29.568 2.976 49.536 8.928l-2.88 19.584c-25.92-11.136-48.096-16.704-66.528-16.704-9.984 4.8-14.976 13.056-14.976 24.768zM912.473 295h-29.376V104.344h29.376v93.888l88.997-93.888h19l-90.141 88.704L1032.57 295l-36.865 3.744-83.232-97.632V295zm218.987 0h-27.93v-70.848l-65.09-119.808h31.39l53.28 109.44 49.82-109.44h14.4l-55.87 118.368V295z"/>
        <path fill="#ffffff" d="M1823.21 104.174v116.928c0 17.856-1.92 31.296-5.76 40.32-1.73 4.032-4.52 8.64-8.36 13.824-3.64 4.992-7.96 9.024-12.96 12.096-12.67 7.296-28.51 10.944-47.52 10.944-47.61 0-71.42-24.48-71.42-73.44V104.174h29.38V227.15c0 5.568.09 10.08.28 13.536.2 3.456 1.16 8.352 2.88 14.688 1.92 6.336 4.42 11.424 7.49 15.264 3.27 3.84 8.26 7.296 14.98 10.368 6.91 3.072 15.07 4.608 24.48 4.608 35.9 0 53.85-19.2 53.85-57.6v-123.84h12.68z"/>
        <defs fill="none">
            <radialGradient gradientTransform="rotate(-90.003 930.896 -509.822) scale(416.041 458.664)" gradientUnits="userSpaceOnUse" r="1" cy="0" cx="0" id="b2264053-60cb-4bd1-9020-b3a19b8ef710">
                <stop stop-color="#FF0000"/>
                <stop stop-color="#E86100" offset=".092"/>
                <stop stop-color="#D2B100" offset=".175"/>
                <stop stop-color="#8DBE00" offset=".253"/>
                <stop stop-color="#3FA500" offset=".342"/>
                <stop stop-color="#008E06" offset=".436"/>
                <stop stop-color="#00775B" offset=".524"/>
                <stop stop-color="#0057FF" offset=".602"/>
                <stop stop-color="#7000FF" offset=".696"/>
                <stop stop-color="#000AFF" offset=".785"/>
                <stop stop-color="#FF00B8" offset=".889"/>
                <stop stop-color="#FF0000" offset="1"/>
            </radialGradient>
        </defs>
    </g>
</svg>
